<svg width="626" height="109" viewBox="0 0 626 109" fill="none" xmlns="http://www.w3.org/2000/svg">
<path d="M626.061 87.3477C626.061 85.1338 625.186 83.0105 623.628 81.445C622.07 79.8795 619.958 79 617.755 79H611V109.308H617.755C619.958 109.307 623.628 109.308 623.628 109.308C625.062 109.308 626.061 109.308 626.061 109.308V87.3477Z" fill="#F12C4C"/>
<path d="M618.355 67.614C618.355 65.3996 617.48 63.2759 615.922 61.7101C614.364 60.1442 612.251 59.2646 610.047 59.2646H589L589 121.5H610.047C611.138 121.5 612.219 121.285 613.227 120.866C614.235 120.446 615.151 119.831 615.922 119.056C616.694 118.281 617.306 117.36 617.723 116.347C618.141 115.334 618.356 114.249 618.355 113.152L618.355 67.6157V67.614Z" fill="#1A242D"/>
<path d="M599 59H607V109H599V59Z" fill="#0F1923"/>
<path d="M0.00067234 84.0401C0.00067234 81.8262 0.875803 79.7029 2.43355 78.1374C3.99129 76.5719 6.10405 75.6924 8.30703 75.6924H15.0618V109H8.30703C6.10389 109 2.43344 109 2.43344 109C0.999756 109 0.00067234 109 0.00067234 109V84.0401Z" fill="#F12C4C"/>
<path fill-rule="evenodd" clipRule="evenodd" d="M7.52975 67.6141C7.52975 65.4 8.40483 63.2765 9.96252 61.7107C11.5202 60.145 13.633 59.2651 15.8361 59.2646H36.8855V120H15.8361C14.7452 120 13.665 119.784 12.6571 119.365C11.6493 118.946 10.7335 118.331 9.96212 117.556C9.19076 116.78 8.57893 115.86 8.16158 114.847C7.74423 113.834 7.52953 112.749 7.52975 111.652V67.6158V67.6141Z" fill="#1A242D"/>
<path d="M19 59H26V109H19V59Z" fill="#0F1923"/>
<mask id="mask0_4724_5168" style="mask-type:alpha" maskUnits="userSpaceOnUse" x="-39" y="0" width="680" height="109">
<rect x="-39" width="680" height="109" fill="#C4C4C4"/>
</mask>
<g mask="url(#mask0_4724_5168)">
<path d="M546 23.2593L528.837 6.01125C526.941 4.10544 524.689 2.59366 522.212 1.56225C519.734 0.530837 517.078 -1.62847e-05 514.396 3.74676e-10L111.959 3.74972e-10C106.545 0.00104022 101.353 2.16333 97.5253 6.01125L80.361 23.2593H50.7303C47.2477 23.2584 43.7991 23.947 40.5814 25.2857C37.3637 26.6245 34.4399 28.5872 31.9772 31.0618C29.5144 33.5363 27.5609 36.4743 26.2281 39.7077C24.8953 42.9412 24.2095 46.4068 24.2097 49.9067V136.095C24.2097 139.595 24.8957 143.06 26.2286 146.294C27.5615 149.527 29.515 152.464 31.9778 154.939C34.4406 157.413 37.3643 159.376 40.5818 160.714C43.7994 162.053 47.2479 162.742 50.7303 162.741H80.3559H97.2683C102 162.741 106.5 162.741 111.954 162.741H514.396C519.81 162.739 524.461 162.741 528.578 162.741H546H575.634C582.666 162.74 589.409 159.933 594.381 154.936C599.353 149.939 602.147 143.162 602.147 136.095V49.9067C602.147 42.8398 599.354 36.0624 594.382 31.0653C589.41 26.0683 582.666 23.261 575.634 23.261L546 23.2593ZM31.7841 49.9067C31.7841 47.4066 32.2742 44.931 33.2264 42.6213C34.1786 40.3115 35.5743 38.213 37.3337 36.4454C39.0931 34.6779 41.1818 33.2761 43.4804 32.3199C45.7791 31.3638 48.2426 30.8722 50.7303 30.8731H575.634C578.121 30.8731 580.584 31.3654 582.881 32.322C585.179 33.2785 587.267 34.6805 589.025 36.448C590.784 38.2155 592.179 40.3137 593.13 42.623C594.082 44.9322 594.572 47.4072 594.571 49.9067V136.095C594.571 141.143 592.576 145.983 589.025 149.553C585.473 153.122 580.656 155.127 575.634 155.127H50.7303C48.2427 155.128 45.7793 154.636 43.4808 153.68C41.1823 152.724 39.0937 151.323 37.3343 149.555C35.5749 147.788 34.1793 145.689 33.2269 143.38C32.2746 141.07 31.7843 138.595 31.7841 136.095V49.9067Z" fill="url(#paint0_linear_4724_5168)"/>
</g>
<path d="M91.3971 21.8401H533.5L522.267 10.5515C521.026 9.30394 519.553 8.31428 517.931 7.63902C516.31 6.96375 514.572 6.61611 512.817 6.61594H112.081C110.325 6.61611 108.587 6.96375 106.966 7.63902C105.344 8.31428 103.871 9.30394 102.63 10.5515L91.3971 21.8401Z" fill="#0F1923"/>
<path fill-rule="evenodd" clipRule="evenodd" d="M512.428 15.908L109.536 16.3659C109.257 16.3659 108.98 16.3106 108.722 16.2032C108.464 16.0957 108.23 15.9382 108.032 15.7397C107.835 15.5412 107.678 15.3055 107.571 15.0462C107.464 14.7868 107.409 14.5088 107.409 14.228C107.409 13.9473 107.464 13.6693 107.571 13.4099C107.678 13.1505 107.835 12.9148 108.032 12.7163C108.23 12.5178 108.464 12.3603 108.722 12.2529C108.98 12.1455 109.257 12.0902 109.536 12.0902L512.428 11.6322C512.708 11.6322 512.984 11.6875 513.242 11.795C513.501 11.9024 513.735 12.0599 513.933 12.2584C514.13 12.4569 514.287 12.6926 514.394 12.952C514.501 13.2114 514.556 13.4894 514.556 13.7701C514.556 14.0509 514.501 14.3289 514.394 14.5882C514.287 14.8476 514.13 15.0833 513.933 15.2818C513.735 15.4803 513.501 15.6378 513.242 15.7452C512.984 15.8527 512.708 15.908 512.428 15.908Z" fill="#F12C4C"/>
<mask id="mask1_4724_5168" style="mask-type:alpha" maskUnits="userSpaceOnUse" x="-28" y="29" width="653" height="80">
<rect x="-28" y="29" width="653" height="80" fill="#C4C4C4"/>
</mask>
<g mask="url(#mask1_4724_5168)">
<path fill-rule="evenodd" clipRule="evenodd" d="M30.7843 47.9067C30.7843 45.4066 31.2744 42.931 32.2266 40.6212C33.1788 38.3115 34.5746 36.213 36.334 34.4455C38.0934 32.6779 40.1819 31.2761 42.4806 30.3199C44.7792 29.3638 47.2427 28.8722 49.7305 28.8731H577.061C582.084 28.8731 586.901 30.8784 590.453 34.4479C594.005 38.0174 596 42.8587 596 47.9067V134.095C596 139.143 594.004 143.984 590.452 147.553C586.9 151.122 582.083 153.127 577.061 153.127H49.7305C47.2429 153.128 44.7795 152.636 42.481 151.68C40.1824 150.724 38.094 149.322 36.3346 147.555C34.5752 145.788 33.1795 143.689 32.2272 141.38C31.2748 139.07 30.7845 136.595 30.7843 134.095V47.9067Z" fill="#0F1923"/>
</g>
<defs>
<linearGradient id="paint0_linear_4724_5168" x1="-228346" y1="198285" x2="-228346" y2="-667.742" gradientUnits="userSpaceOnUse">
<stop stop-color="#212B36"/>
<stop offset="1" stop-color="#343B4B"/>
</linearGradient>
</defs>
</svg>
