<svg width="64" height="32" viewBox="0 0 64 32" fill="none" xmlns="http://www.w3.org/2000/svg">
<defs>
    <linearGradient id="grad1" x1="0%" y1="0%" x2="0%" y2="100%">
      <stop offset="0%" style="stop-color:#B4FFDF" />
      <stop offset="100%" style="stop-color:#06E385" />
    </linearGradient>
    
    <filter id="f1" x="0" y="-10%" width="200%" height="200%">
      <feGaussianBlur in="SourceGraphic" stdDeviation="3" result="blur" />
      <feFlood flood-color="#80FFBF" flood-opacity="0.5" result="flood" />
      <feComposite in="flood" in2="blur" operator="in" result="composite" />
      <feMerge>
        <feMergeNode in="composite" />
        <feMergeNode in="SourceGraphic" />
      </feMerge>
    </filter>
  </defs>

  <path d="M0.000430822 14.0018C0.000430822 13.508 0.185042 13.0345 0.513653 12.6854C0.842264 12.3362 1.28796 12.1401 1.75268 12.1401H3.17761V19.8599H1.75268C1.28792 19.8598 0.842232 19.6636 0.513631 19.3144C0.185031 18.9652 0.000430822 18.4916 0.000430822 17.9978V14.0018Z" fill="url(#grad1)" filter="url(#f1)"/>
<path fill-rule="evenodd" clipRule="evenodd" d="M1.58801 10.3385C1.58801 9.84467 1.77261 9.3711 2.10121 9.02191C2.42981 8.67271 2.8755 8.47648 3.34026 8.47638H7.7807V23.5232H3.34026C3.11014 23.5233 2.88226 23.4752 2.66965 23.3816C2.45703 23.2881 2.26385 23.151 2.10112 22.9781C1.9384 22.8052 1.80934 22.5999 1.72129 22.374C1.63325 22.1481 1.58796 21.906 1.58801 21.6615V10.3388V10.3385Z" fill="#212A34"/>
<path fill-rule="evenodd" clipRule="evenodd" d="M64 14.0018C64 13.508 63.8154 13.0345 63.4868 12.6854C63.1582 12.3362 62.7125 12.1401 62.2477 12.1401H60.8228V19.8599H62.2477C62.7125 19.8598 63.1582 19.6636 63.4868 19.3144C63.8154 18.9652 64 18.4916 64 17.9978V14.0018Z" fill="url(#grad1)" filter="url(#f1)"/>
<path d="M62.4112 10.3385C62.4112 9.84461 62.2265 9.37098 61.8979 9.02177C61.5692 8.67256 61.1234 8.47638 60.6586 8.47638H56.2185V23.5232H60.6586C60.8887 23.5233 61.1166 23.4753 61.3293 23.3817C61.542 23.2882 61.7352 23.1511 61.8979 22.9782C62.0607 22.8053 62.1898 22.6 62.2779 22.3741C62.3659 22.1482 62.4112 21.9061 62.4112 21.6615V10.3388V10.3385Z" fill="url(#paint0_linear_4724_5893)"/>
<rect x="5.61404" y="1.18518" width="52.7719" height="29.6296" rx="3" fill="#353C4C"/>
<path fill-rule="evenodd" clipRule="evenodd" d="M7.85965 7.3681C7.85965 6.86732 7.95666 6.37143 8.14514 5.90878C8.33361 5.44613 8.60987 5.02577 8.95812 4.67173C9.30637 4.31768 9.71978 4.03688 10.1748 3.84536C10.6297 3.65384 11.1174 3.55536 11.6098 3.55554H52.3916C53.3858 3.55554 54.3393 3.95722 55.0424 4.67222C55.7454 5.38721 56.1404 6.35695 56.1404 7.3681V24.6322C56.1403 25.6433 55.7453 26.613 55.0422 27.3279C54.3392 28.0428 53.3858 28.4444 52.3916 28.4444H11.6098C11.1174 28.4446 10.6298 28.3461 10.1748 28.1546C9.71988 27.9632 9.30648 27.6824 8.95824 27.3284C8.60999 26.9744 8.33373 26.554 8.14524 26.0914C7.95674 25.6288 7.8597 25.133 7.85965 24.6322V7.3681Z" fill="url(#grad1)" filter="url(#f1)"/>
<path d="M47.4931 0.446516L43.8726 0.446901C43.4431 0.446927 43.2281 0.446503 42.475 0.446503C41.7219 0.446484 41.3921 0.44651 40.8263 0.446514L23.1965 0.446516C22.0544 0.446748 20.7719 0.446907 20.1516 0.446901L16.5308 0.446516H10.2801C9.54541 0.446314 8.81791 0.599884 8.13913 0.898456C7.46034 1.19703 6.84357 1.63475 6.32404 2.18662C5.80451 2.73849 5.3924 3.3937 5.11125 4.11482C4.8301 4.83594 4.68541 5.60885 4.68546 6.38939V25.611C4.68546 26.3915 4.83018 27.1644 5.11135 27.8854C5.39253 28.6065 5.80464 29.2617 6.32417 29.8135C6.84369 30.3653 7.46045 30.803 8.13921 31.1016C8.81797 31.4001 9.54544 31.5537 10.2801 31.5535H16.5297H20.1505C20.1505 31.5535 22.0533 31.5533 23.1954 31.5535H40.8263C41.9684 31.5531 43.4431 31.5535 43.4431 31.5535H47.4931H53.7446C55.2279 31.5534 56.6505 30.9273 57.6994 29.8129C58.7483 28.6985 59.3376 27.187 59.3377 25.611V6.38939C59.3377 4.81334 58.7484 3.30185 57.6995 2.18742C56.6506 1.07298 55.228 0.446901 53.7446 0.446901L47.4931 0.446516ZM6.2833 6.38939C6.2833 5.83182 6.38669 5.27971 6.58756 4.7646C6.78844 4.24949 7.08286 3.78147 7.45401 3.38728C7.82516 2.99309 8.26577 2.68045 8.75067 2.46721C9.23557 2.25398 9.75527 2.14433 10.2801 2.14453H53.7446C54.2692 2.14453 54.7887 2.25433 55.2734 2.46766C55.7582 2.68099 56.1986 2.99367 56.5695 3.38785C56.9405 3.78202 57.2348 4.24997 57.4355 4.76498C57.6363 5.27999 57.7396 5.83196 57.7395 6.38939V25.611C57.7395 26.7367 57.3186 27.8163 56.5694 28.6123C55.8202 29.4083 54.8041 29.8555 53.7446 29.8555H10.2801C9.7553 29.8557 9.23564 29.746 8.75076 29.5328C8.26588 29.3196 7.82529 29.007 7.45414 28.6129C7.08299 28.2187 6.78856 27.7507 6.58767 27.2357C6.38677 26.7206 6.28334 26.1685 6.2833 25.611V6.38939Z" fill="url(#paint1_linear_4724_5893)"/>
<defs>
<linearGradient id="paint0_linear_4724_5893" x1="62.4112" y1="15.9998" x2="56.2185" y2="15.9998" gradientUnits="userSpaceOnUse">
<stop stop-color="#212B36"/>
<stop offset="1" stop-color="#343B4B"/>
</linearGradient>
<linearGradient id="paint1_linear_4724_5893" x1="-48170.7" y1="44216.6" x2="-48170.7" y2="-153.659" gradientUnits="userSpaceOnUse">
<stop stop-color="#212B36"/>
<stop offset="1" stop-color="#343B4B"/>
</linearGradient>
</defs>
</svg>
